<svg xmlns="http://www.w3.org/2000/svg" viewBox="0 0 24 24" fill="none" stroke-linecap="round" stroke-linejoin="round">
  <path d="M6 10h-1a1 1 0 0 1 -1 -1a3 3 0 0 1 3 -3h4l.357 .357a2 2 0 0 1 .564 1.15l.079 .493" stroke="#00ff9d" stroke-width="2" />
  <path d="M10 9h8a2 2 0 0 1 2 2a3 3 0 0 1 -3 3h-7v-3a1 1 0 0 1 1 -1z" stroke="#00ff9d" stroke-width="2" />
  <path d="M9 21v-4a2 2 0 0 1 2 -2h2a2 2 0 0 1 2 2v4" stroke="#00ff9d" stroke-width="2" />
  <path d="M6 21h12" stroke="#00ff9d" stroke-width="2" />
  <path d="M13 2l-2 4h3l-2 4" stroke="#4D9FFF" stroke-width="2" />
</svg>
